<?xml version="1.0" standalone="no"?>
<!DOCTYPE svg PUBLIC "-//W3C//DTD SVG 20010904//EN"
 "http://www.w3.org/TR/2001/REC-SVG-20010904/DTD/svg10.dtd">
<svg version="1.0" xmlns="http://www.w3.org/2000/svg"
 width="640.000000pt" height="640.000000pt" viewBox="0 0 640.000000 640.000000"
 preserveAspectRatio="xMidYMid meet">

<g transform="translate(0.000000,640.000000) scale(0.100000,-0.100000)"
fill="#000000" stroke="none">
<path d="M2880 6094 c-19 -2 -78 -9 -130 -14 -322 -35 -727 -162 -1030 -323
-781 -414 -1349 -1164 -1534 -2027 -51 -240 -61 -336 -61 -640 0 -305 5 -364
56 -612 205 -1013 922 -1854 1889 -2216 339 -127 663 -183 1051 -182 368 1
683 54 1002 171 1044 383 1784 1295 1949 2401 31 205 33 654 5 843 -70 470
-222 876 -465 1245 -124 190 -233 323 -396 486 -468 467 -1021 744 -1696 849
-100 16 -553 29 -640 19z m415 -110 c-11 -2 -128 -4 -260 -6 -132 -2 -220 0
-195 3 45 6 493 9 455 3z m98 -11 c-13 -2 -33 -2 -45 0 -13 2 -3 4 22 4 25 0
35 -2 23 -4z m-615 -10 c-10 -2 -28 -2 -40 0 -13 2 -5 4 17 4 22 1 32 -1 23
-4z m695 0 c-7 -2 -21 -2 -30 0 -10 3 -4 5 12 5 17 0 24 -2 18 -5z m-780 -10
c-7 -2 -19 -2 -25 0 -7 3 -2 5 12 5 14 0 19 -2 13 -5z m844 1 c-3 -3 -12 -4
-19 -1 -8 3 -5 6 6 6 11 1 17 -2 13 -5z m-904 -11 c-7 -2 -19 -2 -25 0 -7 3
-2 5 12 5 14 0 19 -2 13 -5z m-56 -9 c-3 -3 -12 -4 -19 -1 -8 3 -5 6 6 6 11 1
17 -2 13 -5z m-167 -39 c-125 -34 -167 -42 -120 -24 38 16 202 57 225 58 11 0
-36 -16 -105 -34z m1387 9 c-3 -3 -12 -4 -19 -1 -8 3 -5 6 6 6 11 1 17 -2 13
-5z m58 -14 c13 -5 14 -9 5 -9 -8 0 -24 4 -35 9 -13 5 -14 9 -5 9 8 0 24 -4
35 -9z m-1633 -47 c-91 -36 -217 -81 -220 -79 -5 6 200 85 218 85 11 -1 12 -2
2 -6z m-367 -154 c-318 -160 -533 -315 -780 -563 -375 -377 -626 -821 -750
-1329 -129 -522 -105 -1124 62 -1617 219 -645 644 -1180 1228 -1542 117 -74
323 -177 443 -223 39 -16 70 -30 68 -32 -6 -6 -123 41 -255 104 -309 145 -589
348 -844 613 -635 659 -913 1562 -762 2477 76 463 251 873 531 1248 243 324
529 578 882 782 111 64 290 153 306 153 6 -1 -52 -33 -129 -71z m2400 53 c-3
-3 -11 0 -18 7 -9 10 -8 11 6 5 10 -3 15 -9 12 -12z m200 -92 c3 -6 -1 -7 -9
-4 -18 7 -21 14 -7 14 6 0 13 -4 16 -10z m-2986 -745 c8 -8 -32 -46 -128 -124
-99 -78 -367 -261 -384 -261 -6 0 -8 21 -4 53 16 161 158 306 329 336 49 9
177 6 187 -4z m189 -108 c27 -30 63 -78 78 -108 27 -50 29 -62 29 -169 0 -103
-3 -121 -26 -171 -25 -52 -92 -139 -108 -139 -4 0 -13 28 -21 63 -16 76 -27
577 -12 577 5 0 32 -24 60 -53z m-570 -373 c76 -21 242 -94 342 -150 47 -26
102 -57 122 -68 21 -12 38 -24 38 -27 0 -4 -24 -17 -52 -30 -72 -32 -215 -38
-305 -14 -117 32 -222 131 -262 248 -11 31 -17 58 -13 61 7 8 59 -1 130 -20z
m442 -464 c0 -5 -23 -40 -51 -77 -145 -195 -265 -450 -327 -698 -42 -165 -56
-292 -56 -490 0 -299 25 -393 130 -499 60 -60 161 -116 254 -141 59 -16 351
-24 1810 -45 985 -14 2304 -40 2309 -46 2 -2 -31 -4 -75 -4 -44 0 -296 -11
-559 -25 -264 -14 -565 -29 -670 -35 -104 -5 -307 -14 -450 -20 -143 -6 -516
-24 -830 -40 -313 -16 -736 -37 -940 -45 -203 -9 -437 -19 -520 -24 -459 -25
-737 109 -887 428 -163 343 -86 978 183 1528 72 145 132 228 172 236 47 9 507
7 507 -3z m14 -909 c21 -14 44 -41 60 -73 26 -51 26 -55 26 -275 l0 -223 -85
0 -85 0 -2 206 c-3 183 -5 208 -20 218 -13 8 -21 7 -32 -4 -21 -21 -24 -53
-25 -247 l-1 -173 -80 0 -80 0 0 223 c0 195 3 227 19 263 20 43 66 84 116 103
46 17 148 7 189 -18z m1485 12 c89 -28 181 -130 192 -213 4 -25 2 -25 -81 -32
-72 -5 -87 -4 -95 9 -48 76 -104 99 -169 68 -40 -19 -76 -76 -76 -120 0 -35
23 -86 48 -109 29 -26 101 -32 139 -13 29 16 63 69 63 101 0 13 13 15 87 10
48 -3 89 -7 91 -9 3 -2 -1 -27 -8 -55 -24 -99 -114 -197 -203 -221 -69 -18
-177 -7 -232 25 -101 60 -146 132 -153 247 -6 106 15 168 82 235 87 86 201
114 315 77z m573 5 c47 -14 93 -63 107 -115 6 -21 11 -135 11 -255 l0 -218
-85 0 -85 0 0 204 c0 218 -4 236 -49 221 -24 -7 -34 -37 -29 -91 2 -32 7 -40
26 -42 21 -3 22 -8 22 -78 0 -72 -1 -74 -25 -74 -24 0 -25 -2 -25 -70 l0 -70
-86 0 -86 0 4 223 c4 243 9 267 66 320 55 52 150 70 234 45z m1253 -14 c22
-10 63 -42 92 -71 67 -68 87 -126 81 -233 -5 -92 -32 -145 -104 -208 -147
-130 -382 -76 -470 107 -22 44 -30 152 -15 207 14 53 63 125 107 159 85 65
219 82 309 39z m-2722 -21 c53 -24 106 -75 134 -125 27 -49 25 -208 -2 -263
-47 -96 -160 -165 -270 -165 l-55 0 0 84 0 83 52 6 c63 8 99 32 115 78 36 98
-29 169 -154 169 l-43 0 0 -210 0 -210 -85 0 -85 0 0 291 0 291 173 -4 c152
-3 178 -6 220 -25z m407 -263 l0 -290 -80 0 -80 0 -1 163 c-1 133 0 305 1 365
0 6 9 21 20 32 16 16 33 20 80 20 l60 0 0 -290z m1646 275 c114 -34 184 -124
192 -249 10 -173 -104 -301 -279 -314 l-69 -5 0 87 0 86 33 1 c85 2 138 46
139 117 1 91 -31 120 -139 130 l-63 5 0 -212 0 -211 -85 0 -85 0 0 290 0 290
153 0 c106 0 169 -5 203 -15z m1261 -4 c25 -12 55 -37 73 -63 29 -40 31 -48
28 -110 -3 -58 -8 -72 -37 -108 l-33 -42 46 -108 c25 -60 46 -114 46 -120 0
-6 -33 -10 -85 -10 l-85 0 -42 88 c-36 75 -42 98 -46 170 -4 81 -4 82 20 82
30 0 48 17 48 47 0 27 -31 45 -68 41 l-27 -3 -1 -180 c-1 -99 -3 -195 -3 -212
l-1 -33 -80 0 -80 0 0 290 0 290 143 0 c118 0 149 -4 184 -19z m-493 -713 c0
-16 -1 -80 -2 -143 l-2 -115 -30 0 c-35 0 -35 0 -23 184 l6 107 26 -3 c21 -2
26 -8 25 -30z m106 12 c0 -15 -7 -20 -25 -20 -18 0 -25 5 -25 20 0 15 7 20 25
20 18 0 25 -5 25 -20z m-498 -90 c27 -28 30 -36 25 -76 -8 -75 -70 -118 -143
-100 -76 19 -102 120 -45 177 25 25 37 29 81 29 44 0 56 -4 82 -30z m128 20
c0 -7 6 -7 19 0 30 15 92 12 113 -7 13 -12 18 -31 18 -73 0 -92 -9 -120 -36
-120 -23 0 -24 3 -24 74 0 81 -12 103 -53 92 -31 -7 -47 -45 -47 -111 0 -55 0
-55 -31 -55 -31 0 -31 1 -25 38 3 20 6 67 6 105 l0 67 30 0 c17 0 30 -5 30
-10z m367 -57 c-4 -38 -7 -85 -7 -105 0 -36 -2 -38 -31 -38 -24 0 -30 3 -25
16 3 9 6 56 6 105 l0 89 31 0 32 0 -6 -67z m113 57 c0 -7 6 -7 19 0 11 5 38
10 60 10 65 0 81 -41 65 -164 -6 -40 -10 -46 -30 -46 -23 0 -24 3 -24 74 0 82
-12 103 -55 92 -32 -8 -45 -41 -45 -112 0 -54 0 -54 -31 -54 l-32 0 7 61 c3
34 6 82 6 105 0 42 1 44 30 44 17 0 30 -5 30 -10z m353 -2 c18 -14 39 -73 29
-82 -3 -3 -36 -6 -74 -6 -59 0 -68 -2 -68 -18 0 -38 23 -55 73 -51 39 4 47 1
47 -13 0 -22 -38 -32 -91 -25 -50 7 -77 30 -85 73 -15 79 28 134 104 134 26 0
56 -6 65 -12z m-615 -650 c-2 -6 -10 -14 -16 -16 -7 -2 -10 2 -6 12 7 18 28
22 22 4z m-3847 -35 c6 -21 20 -59 30 -85 15 -39 16 -48 5 -48 -8 0 -20 16
-26 35 -10 31 -16 35 -46 35 -29 0 -37 -5 -51 -35 -9 -19 -23 -35 -30 -35 -11
0 -11 5 0 28 8 15 27 53 41 85 33 69 58 76 77 20z m529 -48 c0 -72 -3 -85 -16
-85 -13 0 -15 7 -10 31 3 17 6 56 6 85 0 30 5 54 10 54 6 0 10 -35 10 -85z
m60 55 c0 -28 2 -29 24 -19 31 14 73 4 78 -18 5 -28 -4 -103 -12 -103 -5 0
-10 24 -12 53 -3 44 -6 52 -24 55 -32 5 -54 -24 -54 -69 0 -29 -4 -39 -16 -39
-11 0 -14 5 -10 16 3 9 6 47 6 85 0 39 4 69 10 69 6 0 10 -13 10 -30z m576 -7
c-3 -21 -6 -58 -6 -83 l0 -46 -50 -2 c-43 -2 -52 1 -65 22 -24 36 1 91 44 101
17 3 35 4 41 0 6 -4 10 4 10 19 0 17 5 26 16 26 14 0 15 -7 10 -37z m61 31
c-3 -3 -12 -4 -19 -1 -8 3 -5 6 6 6 11 1 17 -2 13 -5z m483 -4 c0 -5 -5 -10
-11 -10 -5 0 -7 5 -4 10 3 6 8 10 11 10 2 0 4 -4 4 -10z m2002 -69 l-4 -80 43
-4 c39 -3 37 -4 -15 -5 l-59 -2 7 46 c3 26 6 64 6 85 0 25 5 39 13 39 9 0 11
-20 9 -79z m284 12 c-3 -38 -6 -75 -6 -84 0 -12 -11 -16 -46 -18 -57 -2 -74
11 -74 54 0 40 38 75 81 75 22 0 29 5 29 20 0 11 5 20 11 20 8 0 10 -20 5 -67z
m-1076 43 c0 -7 10 -17 23 -21 l22 -8 -21 -4 c-16 -3 -23 -13 -26 -36 -5 -46
1 -69 18 -63 8 3 14 1 14 -5 0 -6 -12 -9 -27 -7 -27 3 -28 5 -26 53 1 29 -3
53 -10 58 -9 7 -9 10 1 14 6 2 12 11 12 19 0 8 5 14 10 14 6 0 10 -6 10 -14z
m-2684 -29 c4 -3 15 -2 26 4 11 6 31 8 44 5 22 -6 24 -11 24 -66 0 -74 -18
-80 -22 -7 -3 45 -6 52 -25 55 -26 4 -43 -28 -43 -79 0 -16 -4 -29 -10 -29 -5
0 -10 25 -10 55 0 46 -3 55 -18 55 -29 0 -42 -21 -42 -67 0 -24 -4 -43 -10
-43 -6 0 -10 28 -10 63 l0 64 45 -2 c24 0 47 -4 51 -8z m225 3 c10 -6 19 -20
19 -30 0 -17 -7 -20 -44 -20 -52 0 -65 -13 -40 -41 14 -15 26 -19 47 -15 17 4
26 2 22 -4 -10 -16 -67 -12 -87 7 -24 21 -23 64 2 91 23 24 50 28 81 12z m367
-6 c15 -10 22 -25 22 -49 0 -43 -22 -65 -65 -65 -18 0 -41 7 -49 16 -22 22
-20 66 4 92 24 26 57 28 88 6z m122 5 c0 -5 -7 -9 -15 -9 -18 0 -35 -39 -35
-81 0 -16 -4 -29 -10 -29 -6 0 -10 28 -10 63 l0 63 35 1 c19 1 35 -3 35 -8z
m276 -35 c-3 -26 -6 -55 -6 -65 0 -11 -4 -19 -10 -19 -6 0 -10 28 -10 65 0 54
3 65 16 65 14 0 16 -8 10 -46z m54 34 c0 -9 3 -9 12 0 13 13 38 16 38 4 0 -4
-10 -12 -22 -17 -19 -8 -24 -19 -26 -57 -5 -72 -22 -58 -22 17 0 37 4 65 10
65 6 0 10 -5 10 -12z m172 -5 c33 -29 22 -43 -32 -43 -43 0 -50 -3 -50 -20 0
-24 34 -43 60 -35 12 4 20 2 20 -4 0 -6 -18 -11 -40 -11 -31 0 -43 5 -56 25
-40 62 43 138 98 88z m135 1 c2 -7 -6 -10 -22 -7 -33 7 -55 -12 -55 -48 0 -30
30 -55 56 -45 8 3 14 1 14 -4 0 -14 -64 -12 -78 2 -21 21 -15 85 11 103 24 17
68 17 74 -1z m123 6 c10 -5 17 -18 15 -27 -2 -10 -4 -35 -4 -55 -1 -47 -19
-50 -23 -5 -3 33 -4 33 -36 25 -39 -10 -42 -44 -4 -42 12 0 22 -3 22 -8 0 -16
-60 -8 -67 8 -10 25 10 48 51 57 48 12 48 37 0 37 -21 0 -33 4 -29 10 8 13 51
13 75 0z m155 -4 c22 -16 26 -76 6 -100 -21 -25 -86 -21 -105 6 -22 32 -20 55
9 83 27 28 62 32 90 11z m225 -6 c24 -24 26 -58 4 -89 -13 -19 -24 -22 -55
-19 l-39 4 0 -38 c0 -21 -4 -38 -10 -38 -15 0 -13 187 3 193 30 13 78 6 97
-13z m134 14 c12 -5 16 -21 16 -65 0 -33 -4 -59 -10 -59 -5 0 -10 16 -10 35 0
19 -2 35 -4 35 -1 0 -17 -5 -35 -11 -37 -13 -39 -44 -4 -43 12 0 20 -3 17 -8
-10 -15 -62 -9 -68 9 -8 21 14 44 56 57 50 17 49 39 -1 34 -22 -2 -41 0 -41 3
0 16 55 24 84 13z m76 -6 c0 -9 3 -9 12 0 13 13 38 16 38 4 0 -4 -10 -12 -22
-17 -19 -8 -24 -19 -26 -57 -2 -35 -7 -48 -19 -48 -10 0 -13 6 -9 16 3 9 6 38
6 65 0 27 5 49 10 49 6 0 10 -5 10 -12z m161 2 c20 -11 25 -52 13 -97 -9 -34
-24 -28 -24 11 0 30 -2 33 -25 29 -50 -10 -56 -44 -10 -56 11 -3 4 -5 -15 -4
-30 2 -35 5 -35 27 0 20 8 28 43 40 53 18 58 44 7 38 -34 -4 -48 5 -22 15 21
9 47 7 68 -3z m184 0 c4 -6 -5 -10 -19 -10 -33 0 -33 -17 0 -42 34 -27 29 -62
-10 -66 -16 -2 -33 1 -38 6 -6 6 -1 8 15 5 37 -7 43 15 13 46 -28 29 -34 56
-13 64 21 9 46 7 52 -3z m139 -12 c24 -34 20 -38 -34 -38 -43 0 -50 -3 -50
-20 0 -24 34 -43 60 -35 12 4 20 2 20 -4 0 -6 -18 -11 -40 -11 -31 0 -43 5
-56 25 -42 64 56 146 100 83z m298 5 c10 -9 18 -30 18 -46 0 -43 -25 -67 -71
-67 -43 0 -59 19 -59 69 0 53 71 81 112 44z m124 6 c3 -5 -4 -9 -16 -9 -23 0
-40 -34 -40 -81 0 -16 -4 -29 -10 -29 -6 0 -10 28 -10 63 l0 63 35 1 c19 1 38
-3 41 -8z m44 1 c0 -6 8 -5 20 2 13 9 27 9 47 2 26 -9 28 -14 31 -67 2 -47 0
-57 -13 -57 -13 0 -15 7 -10 43 5 33 3 46 -9 56 -35 29 -76 -11 -76 -77 0 -20
-4 -31 -10 -27 -5 3 -10 35 -10 71 0 50 3 64 15 64 8 0 15 -5 15 -10z m228 -2
c13 -13 16 -75 6 -102 -11 -28 -26 -17 -22 17 3 29 1 32 -22 29 -26 -4 -50
-19 -50 -32 0 -5 12 -13 28 -19 27 -10 27 -10 -8 -8 -30 2 -35 6 -35 27 0 20
8 27 43 40 50 17 52 35 4 35 -53 0 -36 23 19 24 14 1 30 -4 37 -11z m116 1
c-3 -5 -12 -9 -20 -9 -18 0 -34 -40 -34 -86 0 -21 -4 -33 -10 -29 -5 3 -10 35
-10 69 l0 63 40 0 c22 0 37 -4 34 -8z m246 -54 c0 -37 -4 -65 -10 -65 -6 0
-10 28 -10 65 0 37 4 65 10 65 6 0 10 -28 10 -65z m292 48 c33 -29 22 -43 -32
-43 -37 0 -50 -4 -50 -14 0 -25 31 -48 56 -42 14 4 24 2 24 -4 0 -14 -73 -13
-88 2 -7 7 -12 29 -12 49 0 59 60 90 102 52z m108 6 c0 -5 -7 -9 -15 -9 -20 0
-35 -32 -35 -74 0 -20 -4 -36 -10 -36 -6 0 -10 28 -10 63 l0 63 35 1 c19 1 35
-3 35 -8z m-2690 -149 c0 -11 -7 -20 -15 -20 -13 0 -14 4 -5 20 6 11 13 20 15
20 3 0 5 -9 5 -20z m1930 -825 c0 -2 -10 -9 -22 -15 -22 -11 -22 -10 -4 4 21
17 26 19 26 11z m-2370 -225 c8 -5 11 -10 5 -10 -5 0 -17 5 -25 10 -8 5 -10
10 -5 10 6 0 17 -5 25 -10z m130 -40 c47 -16 70 -27 51 -24 -41 7 -172 53
-151 52 8 0 53 -13 100 -28z m117 -36 c-3 -3 -12 -4 -19 -1 -8 3 -5 6 6 6 11
1 17 -2 13 -5z m40 -10 c-3 -3 -12 -4 -19 -1 -8 3 -5 6 6 6 11 1 17 -2 13 -5z
m50 -10 c-3 -3 -12 -4 -19 -1 -8 3 -5 6 6 6 11 1 17 -2 13 -5z m138 -24 c77
-15 86 -18 40 -14 -58 5 -185 31 -155 32 8 1 60 -8 115 -18z m982 4 c-3 -3
-12 -4 -19 -1 -8 3 -5 6 6 6 11 1 17 -2 13 -5z m-44 -11 c-7 -2 -21 -2 -30 0
-10 3 -4 5 12 5 17 0 24 -2 18 -5z m-60 -10 c-7 -2 -21 -2 -30 0 -10 3 -4 5
12 5 17 0 24 -2 18 -5z m-730 -10 c-7 -2 -21 -2 -30 0 -10 3 -4 5 12 5 17 0
24 -2 18 -5z m660 0 c-7 -2 -21 -2 -30 0 -10 3 -4 5 12 5 17 0 24 -2 18 -5z
m-555 -10 c-10 -2 -26 -2 -35 0 -10 3 -2 5 17 5 19 0 27 -2 18 -5z m455 0 c-7
-2 -19 -2 -25 0 -7 3 -2 5 12 5 14 0 19 -2 13 -5z m-226 -10 c-20 -2 -52 -2
-70 0 -17 2 0 4 38 4 39 0 53 -2 32 -4z"/>
<path d="M993 3648 c-34 -45 -157 -288 -206 -408 -50 -121 -105 -306 -122
-413 -19 -115 -19 -311 -1 -397 64 -300 296 -507 670 -595 144 -34 151 -31 26
10 -519 170 -715 620 -549 1262 38 150 98 324 154 448 46 102 53 125 28 93z"/>
<path d="M4673 2890 c-63 -38 -84 -98 -59 -165 53 -137 246 -96 246 52 0 65
-67 133 -130 133 -14 0 -39 -9 -57 -20z"/>
<path d="M4454 2232 c-40 -27 -38 -97 4 -113 39 -15 72 12 72 59 0 21 -5 43
-12 50 -13 13 -47 16 -64 4z"/>
<path d="M5426 2234 c-23 -22 -11 -34 35 -34 40 0 51 14 27 38 -17 17 -44 15
-62 -4z"/>
<path d="M1011 1574 c-14 -31 -2 -50 24 -40 12 4 14 12 10 28 -11 37 -21 40
-34 12z"/>
<path d="M2136 1544 c-28 -28 -15 -84 20 -84 23 0 44 31 44 66 0 29 -3 34 -24
34 -14 0 -32 -7 -40 -16z"/>
<path d="M4966 1544 c-38 -37 -7 -97 39 -76 21 10 25 19 25 52 0 36 -3 40 -24
40 -14 0 -32 -7 -40 -16z"/>
<path d="M1457 1554 c-15 -16 -5 -24 29 -24 24 0 34 4 32 13 -5 13 -50 22 -61
11z"/>
<path d="M1824 1552 c-22 -14 -27 -53 -8 -73 21 -23 37 -24 58 -3 21 20 21 70
0 78 -21 8 -36 7 -50 -2z"/>
<path d="M2440 1545 c-11 -13 -7 -15 30 -15 37 0 41 2 30 15 -7 8 -20 15 -30
15 -10 0 -23 -7 -30 -15z"/>
<path d="M2852 1548 c-17 -17 -15 -63 3 -78 12 -10 22 -10 39 -2 27 12 36 39
25 70 -9 24 -47 30 -67 10z"/>
<path d="M3067 1553 c-13 -12 -7 -62 9 -77 22 -23 41 -20 60 9 24 36 6 75 -34
75 -16 0 -32 -3 -35 -7z"/>
<path d="M3770 1545 c-11 -13 -7 -15 30 -15 37 0 41 2 30 15 -7 8 -20 15 -30
15 -10 0 -23 -7 -30 -15z"/>
<path d="M4062 1548 c-22 -22 -14 -67 13 -80 21 -9 28 -8 45 7 36 32 20 85
-25 85 -12 0 -26 -5 -33 -12z"/>
<path d="M5120 1545 c-11 -13 -7 -15 28 -15 33 0 40 3 36 15 -4 8 -16 15 -29
15 -12 0 -28 -7 -35 -15z"/>
</g>
</svg>
